<svg xmlns="http://www.w3.org/2000/svg" viewBox="0 0 500 500"><g id="freepik--background-complete--inject-12"><polygon points="359.11 314.62 356.81 328.4 341.25 412.46 338.74 412.46 350.06 328.4 351.73 314.62 359.11 314.62" style="fill:#dbdbdb"></polygon><polygon points="351.73 314.62 359.11 314.62 356.81 328.4 350.06 328.4 351.73 314.62" style="fill:#a6a6a6"></polygon><polygon points="407.99 412.46 405.48 412.46 389.92 328.4 387.62 314.62 395 314.62 396.67 328.4 407.99 412.46" style="fill:#dbdbdb"></polygon><polygon points="395 314.62 396.67 328.4 389.92 328.4 387.62 314.62 395 314.62" style="fill:#a6a6a6"></polygon><polygon points="454.68 412.46 452.17 412.46 436.6 328.4 434.31 314.62 441.69 314.62 443.36 328.4 454.68 412.46" style="fill:#dbdbdb"></polygon><polygon points="443.36 328.4 436.6 328.4 434.31 314.62 441.69 314.62 443.36 328.4" style="fill:#a6a6a6"></polygon><polygon points="450.7 321.09 336.64 321.09 336.64 309.07 379.34 309.07 393.69 225.59 446.35 225.59 450.7 321.09" style="fill:#dbdbdb"></polygon><polygon points="450.7 321.09 444.48 321.09 440.43 225.59 446.35 225.59 450.7 321.09" style="fill:#a6a6a6"></polygon><polygon points="41.17 388.84 216.91 388.84 220.56 316.73 37.52 316.73 41.17 388.84" style="fill:#ebebeb"></polygon><path d="M208.58,349.74H135.11l-1.38-25h76.46ZM136,348.85h71.8l1.49-23.26H134.67Z" style="fill:#dbdbdb"></path><path d="M207.22,378.54H138l-1.13-22.6h71.78Zm-68.39-.89h67.56l1.3-20.82H137.8Z" style="fill:#dbdbdb"></path><path d="M178.92,339.94H166.57l-.77-6h13.9Zm-11.57-.89h10.79l.55-4.26H166.8Z" style="fill:#dbdbdb"></path><path d="M178.92,370.26H166.57l-.77-6h13.9Zm-11.57-.89h10.79l.55-4.26H166.8Z" style="fill:#dbdbdb"></path><path d="M122.16,349.74H48.69l-1.38-25h76.46Zm-72.63-.89h71.8l1.49-23.26H48.25Z" style="fill:#dbdbdb"></path><path d="M120.81,378.54H51.57l-1.13-22.6h71.78Zm-68.4-.89H120l1.3-20.82H51.38Z" style="fill:#dbdbdb"></path><path d="M92.5,339.94H80.16l-.78-6h13.9Zm-11.56-.89H91.72l.55-4.26H80.39Z" style="fill:#dbdbdb"></path><path d="M92.5,370.26H80.16l-.78-6h13.9Zm-11.56-.89H91.72l.55-4.26H80.39Z" style="fill:#dbdbdb"></path><polygon points="56.94 388.84 55.83 396.69 53.61 412.48 49.27 412.48 49.27 388.84 56.94 388.84" style="fill:#ebebeb"></polygon><polygon points="56.94 388.84 55.83 396.69 49.27 396.69 49.27 388.84 56.94 388.84" style="fill:#dbdbdb"></polygon><polygon points="201.15 388.84 202.25 396.69 204.47 412.48 208.81 412.48 208.81 388.84 201.15 388.84" style="fill:#ebebeb"></polygon><polygon points="201.15 388.84 202.25 396.69 208.81 396.69 208.81 388.84 201.15 388.84" style="fill:#dbdbdb"></polygon></g><g id="freepik--Shadow--inject-12"><ellipse cx="250" cy="447.18" rx="203" ry="23.07" style="fill:#ebebeb"></ellipse></g><g id="freepik--Floor--inject-12"><polygon points="36.47 412.48 89.85 412.24 143.23 412.15 250 411.98 356.77 412.15 410.15 412.23 463.53 412.48 410.15 412.72 356.77 412.81 250 412.98 143.23 412.81 89.85 412.72 36.47 412.48" style="fill:#263238"></polygon></g><g id="freepik--Board--inject-12"><rect x="93" y="50.21" width="314.01" height="198.71" style="fill:#ebebeb"></rect><rect x="100.62" y="57.84" width="298.75" height="183.45" style="fill:#fff"></rect><rect x="172.93" y="57.84" width="3.49" height="183.45" style="fill:#ebebeb"></rect><rect x="248.25" y="57.84" width="3.49" height="183.45" style="fill:#ebebeb"></rect><rect x="248.25" y="-69.35" width="3.49" height="298.75" transform="translate(330.03 -169.97) rotate(90)" style="fill:#ebebeb"></rect><rect x="323.58" y="57.84" width="3.49" height="183.45" style="fill:#ebebeb"></rect><path d="M193,226h16a27.72,27.72,0,0,0,.35-4V205.82H189.18v16.37C189.18,223.82,193,226,193,226Z" style="fill:#455a64"></path><path d="M189.18,222.18c0,1.59,3.56,3.67,3.78,3.8-.59-.4-.49-3.56-.49-3.56A19.76,19.76,0,0,0,189.18,222.18Z" style="fill:#37474f"></path><path d="M192.15,210.58c2.37-.19,4.75-.24,7.12-.25s4.75.06,7.12.25c-2.37.2-4.75.24-7.12.25S194.52,210.78,192.15,210.58Z" style="fill:#fff"></path><path d="M192.15,213.24c1.87-.19,3.74-.24,5.6-.25s3.74.06,5.6.25a52.34,52.34,0,0,1-5.6.25A55.35,55.35,0,0,1,192.15,213.24Z" style="fill:#fff"></path><path d="M192.15,215.9c1.87-.19,3.74-.24,5.6-.25s3.74.06,5.6.25a52.34,52.34,0,0,1-5.6.25A55.35,55.35,0,0,1,192.15,215.9Z" style="fill:#fff"></path><rect x="338.37" y="89.53" width="20.18" height="20.18" style="fill:#37474f"></rect><path d="M341.34,94c2.37-.19,4.74-.24,7.12-.25s4.74.06,7.12.25c-2.38.2-4.75.24-7.12.25S343.71,94.15,341.34,94Z" style="fill:#fff"></path><path d="M341.34,96.61a25.47,25.47,0,0,1,7.12,0,25.47,25.47,0,0,1-7.12,0Z" style="fill:#fff"></path><path d="M341.34,99.27c1.87-.19,3.73-.24,5.6-.25s3.73.06,5.6.25a62.85,62.85,0,0,1-11.2,0Z" style="fill:#fff"></path><path d="M341.34,101.93c2.37-.19,4.74-.24,7.12-.25s4.74.06,7.12.25c-2.38.2-4.75.24-7.12.25S343.71,102.13,341.34,101.93Z" style="fill:#fff"></path><path d="M341.34,104.59c1.82-.19,3.65-.24,5.47-.25s3.65.06,5.48.25a60.08,60.08,0,0,1-11,0Z" style="fill:#fff"></path><rect x="210.31" y="146.5" width="20.18" height="20.18" transform="translate(-24.1 41.2) rotate(-10.13)" style="fill:#455a64"></rect><path d="M212.4,152.26c2.3-.61,4.63-1.08,7-1.5s4.68-.78,7-1c-2.3.61-4.63,1.07-7,1.5S214.77,152,212.4,152.26Z" style="fill:#fff"></path><path d="M212.86,154.87a23.68,23.68,0,0,1,3.46-.87,23.36,23.36,0,0,1,3.55-.38,25.57,25.57,0,0,1-7,1.25Z" style="fill:#fff"></path><path d="M213.33,157.49c1.81-.52,3.64-.89,5.47-1.23s3.69-.6,5.56-.74a54,54,0,0,1-5.47,1.23A54.57,54.57,0,0,1,213.33,157.49Z" style="fill:#fff"></path><path d="M213.8,160.11c2.3-.61,4.63-1.07,7-1.5s4.69-.78,7.06-1c-2.31.61-4.63,1.07-7,1.5S216.17,159.89,213.8,160.11Z" style="fill:#fff"></path><path d="M214.27,162.73c1.76-.51,3.55-.88,5.34-1.21s3.61-.59,5.44-.72A51.69,51.69,0,0,1,219.7,162C217.9,162.32,216.1,162.6,214.27,162.73Z" style="fill:#fff"></path><rect x="136.68" y="134.76" width="20.18" height="20.18" style="fill:#455a64"></rect><path d="M139.65,139.18c2.38-.2,4.75-.24,7.12-.25s4.75,0,7.12.25c-2.37.19-4.75.24-7.12.25S142,139.37,139.65,139.18Z" style="fill:#fff"></path><path d="M139.65,141.84a25.47,25.47,0,0,1,7.12,0,25.47,25.47,0,0,1-7.12,0Z" style="fill:#fff"></path><path d="M139.65,144.5a62.85,62.85,0,0,1,11.2,0c-1.86.19-3.73.24-5.6.25S141.52,144.69,139.65,144.5Z" style="fill:#fff"></path><path d="M139.65,147.16c2.38-.2,4.75-.24,7.12-.25s4.75.05,7.12.25c-2.37.19-4.75.24-7.12.25S142,147.35,139.65,147.16Z" style="fill:#fff"></path><path d="M139.65,149.82a60.08,60.08,0,0,1,10.95,0c-1.82.19-3.65.24-5.47.25S141.48,150,139.65,149.82Z" style="fill:#fff"></path><rect x="138.2" y="201.79" width="20.18" height="20.18" style="fill:#37474f"></rect><path d="M141.17,206.21c2.37-.2,4.75-.24,7.12-.25s4.74,0,7.12.25c-2.38.19-4.75.24-7.12.25S143.54,206.4,141.17,206.21Z" style="fill:#fff"></path><path d="M141.17,208.87a25.47,25.47,0,0,1,7.12,0,25.47,25.47,0,0,1-7.12,0Z" style="fill:#fff"></path><path d="M141.17,211.53a62.84,62.84,0,0,1,11.2,0c-1.87.19-3.73.24-5.6.25S143,211.72,141.17,211.53Z" style="fill:#fff"></path><path d="M141.17,214.19c2.37-.2,4.75-.24,7.12-.25s4.74.05,7.12.25c-2.38.19-4.75.24-7.12.25S143.54,214.38,141.17,214.19Z" style="fill:#fff"></path><path d="M141.17,216.85a60.08,60.08,0,0,1,11,0c-1.82.19-3.65.24-5.47.25S143,217,141.17,216.85Z" style="fill:#fff"></path><rect x="265.66" y="141.42" width="20.18" height="20.18" style="fill:#37474f"></rect><path d="M268.63,145.84c2.38-.2,4.75-.24,7.12-.25s4.75,0,7.12.25c-2.37.19-4.74.24-7.12.25S271,146,268.63,145.84Z" style="fill:#fff"></path><path d="M268.63,148.5a25.47,25.47,0,0,1,7.12,0,22.35,22.35,0,0,1-3.56.25A23.77,23.77,0,0,1,268.63,148.5Z" style="fill:#fff"></path><path d="M268.63,151.16a62.84,62.84,0,0,1,11.2,0,55.09,55.09,0,0,1-5.6.25C272.37,151.4,270.5,151.35,268.63,151.16Z" style="fill:#fff"></path><path d="M268.63,153.82c2.38-.19,4.75-.24,7.12-.25s4.75.05,7.12.25c-2.37.2-4.74.24-7.12.25S271,154,268.63,153.82Z" style="fill:#fff"></path><path d="M268.63,156.48c1.83-.19,3.65-.24,5.48-.25a53,53,0,0,1,5.48.25,53,53,0,0,1-5.48.25C272.28,156.72,270.46,156.67,268.63,156.48Z" style="fill:#fff"></path><rect x="281.12" y="103.05" width="20.18" height="20.18" transform="translate(19.95 -41.86) rotate(8.51)" style="fill:#FFC727"></rect><path d="M285,106.48c2.38.16,4.73.47,7.08.81s4.69.75,7,1.3c-2.37-.16-4.73-.47-7.07-.81S287.33,107,285,106.48Z" style="fill:#fff"></path><path d="M284.62,109.11a24.88,24.88,0,0,1,3.56.28,23.58,23.58,0,0,1,3.48.78,24.88,24.88,0,0,1-3.56-.28A23.3,23.3,0,0,1,284.62,109.11Z" style="fill:#fff"></path><path d="M284.23,111.74c1.87.09,3.72.32,5.57.58s3.69.61,5.5,1.08a54.46,54.46,0,0,1-5.57-.58C287.88,112.53,286,112.21,284.23,111.74Z" style="fill:#fff"></path><path d="M283.83,114.37c2.38.16,4.73.47,7.08.81s4.68.76,7,1.3c-2.37-.16-4.73-.46-7.08-.81S286.15,114.92,283.83,114.37Z" style="fill:#fff"></path><path d="M283.44,117a59.51,59.51,0,0,1,10.83,1.62A61.92,61.92,0,0,1,283.44,117Z" style="fill:#fff"></path><rect x="221.51" y="163.09" width="20.18" height="20.18" style="fill:#FFC727"></rect><path d="M224.48,167.51c2.38-.19,4.75-.24,7.12-.25s4.75.06,7.12.25c-2.37.2-4.74.24-7.12.25S226.86,167.71,224.48,167.51Z" style="fill:#fff"></path><path d="M224.48,170.17a25.47,25.47,0,0,1,7.12,0,25.47,25.47,0,0,1-7.12,0Z" style="fill:#fff"></path><path d="M224.48,172.83c1.87-.19,3.74-.24,5.6-.25s3.74.06,5.61.25a52.65,52.65,0,0,1-5.61.25A55.35,55.35,0,0,1,224.48,172.83Z" style="fill:#fff"></path><path d="M224.48,175.49c2.38-.19,4.75-.24,7.12-.25s4.75.06,7.12.25c-2.37.2-4.74.25-7.12.25S226.86,175.69,224.48,175.49Z" style="fill:#fff"></path><path d="M224.48,178.15c1.83-.19,3.65-.23,5.48-.24a52.87,52.87,0,0,1,5.48.24,50.24,50.24,0,0,1-5.48.25A52.88,52.88,0,0,1,224.48,178.15Z" style="fill:#fff"></path><rect x="131.83" y="106.31" width="20.18" height="20.18" style="fill:#FFC727"></rect><path d="M134.8,110.73c2.37-.19,4.75-.24,7.12-.25s4.74.06,7.12.25c-2.38.2-4.75.24-7.12.25S137.17,110.93,134.8,110.73Z" style="fill:#fff"></path><path d="M134.8,113.39a25.47,25.47,0,0,1,7.12,0,25.47,25.47,0,0,1-7.12,0Z" style="fill:#fff"></path><path d="M134.8,116.05c1.87-.19,3.73-.24,5.6-.25s3.73.06,5.6.25a62.84,62.84,0,0,1-11.2,0Z" style="fill:#fff"></path><path d="M134.8,118.71c2.37-.19,4.75-.24,7.12-.25s4.74.06,7.12.25c-2.38.2-4.75.24-7.12.25S137.17,118.91,134.8,118.71Z" style="fill:#fff"></path><path d="M134.8,121.37c1.82-.19,3.65-.24,5.48-.25s3.65.06,5.47.25a60.08,60.08,0,0,1-10.95,0Z" style="fill:#fff"></path><rect x="300.42" y="178.67" width="20.18" height="20.18" style="fill:#FFC727"></rect><path d="M303.39,183.09c2.37-.19,4.74-.24,7.12-.25s4.74,0,7.11.25c-2.37.2-4.74.24-7.11.25S305.76,183.28,303.39,183.09Z" style="fill:#fff"></path><path d="M303.39,185.75a23.59,23.59,0,0,1,3.56-.25,22.52,22.52,0,0,1,3.56.25A22.52,22.52,0,0,1,307,186,23.59,23.59,0,0,1,303.39,185.75Z" style="fill:#fff"></path><path d="M303.39,188.41c1.86-.19,3.73-.24,5.6-.25a55.35,55.35,0,0,1,5.6.25,62.84,62.84,0,0,1-11.2,0Z" style="fill:#fff"></path><path d="M303.39,191.07c2.37-.19,4.74-.24,7.12-.25s4.74.06,7.11.25c-2.37.2-4.74.24-7.11.25S305.76,191.27,303.39,191.07Z" style="fill:#fff"></path><path d="M303.39,193.73c1.82-.19,3.65-.24,5.47-.25s3.65.06,5.48.25a60.08,60.08,0,0,1-10.95,0Z" style="fill:#fff"></path><path d="M383.41,136.58H363.23a10.77,10.77,0,0,1-1-4V116.4h20.18v16.37A11.38,11.38,0,0,0,383.41,136.58Z" style="fill:#FFC727"></path><path d="M365.7,121.17c2.37-.2,4.74-.24,7.12-.25s4.74,0,7.11.25c-2.37.19-4.74.24-7.11.25S368.07,121.36,365.7,121.17Z" style="fill:#fff"></path><path d="M365.7,123.83c2.13-.2,4.27-.24,6.4-.25s4.27,0,6.4.25c-2.13.2-4.27.24-6.4.25S367.83,124,365.7,123.83Z" style="fill:#fff"></path><path d="M365.7,126.49c1.86-.19,3.73-.24,5.6-.25a55.35,55.35,0,0,1,5.6.25,55.35,55.35,0,0,1-5.6.25C369.43,126.73,367.56,126.68,365.7,126.49Z" style="fill:#fff"></path><path d="M365.7,129.15c2.37-.19,4.74-.24,7.12-.25s4.74,0,7.11.25c-2.37.2-4.74.24-7.11.25S368.07,129.34,365.7,129.15Z" style="fill:#fff"></path><path d="M118.86,170.51H139a10.76,10.76,0,0,0,1-4V150.33H119.86v16.38A11.38,11.38,0,0,1,118.86,170.51Z" style="fill:#FFC727"></path><path d="M122.33,155.1c2.38-.19,4.75-.24,7.12-.25s4.75.06,7.12.25c-2.37.2-4.75.24-7.12.25S124.71,155.3,122.33,155.1Z" style="fill:#fff"></path><path d="M122.33,157.76c2.14-.19,4.27-.24,6.41-.25s4.26.06,6.4.25c-2.14.2-4.27.24-6.4.25S124.47,158,122.33,157.76Z" style="fill:#fff"></path><path d="M122.33,160.42c1.87-.19,3.74-.24,5.6-.25s3.74.06,5.6.25a62.84,62.84,0,0,1-11.2,0Z" style="fill:#fff"></path><path d="M122.33,163.08c2.38-.19,4.75-.24,7.12-.25s4.75.06,7.12.25c-2.37.2-4.75.25-7.12.25S124.71,163.28,122.33,163.08Z" style="fill:#fff"></path><path d="M212.61,220.42H192.43a10.76,10.76,0,0,1-1-4V200.24h20.18v16.38A11.38,11.38,0,0,0,212.61,220.42Z" style="fill:#FFC727"></path><path d="M194.9,205c2.38-.19,4.75-.24,7.12-.25s4.75.06,7.12.25c-2.37.2-4.75.24-7.12.25S197.28,205.21,194.9,205Z" style="fill:#fff"></path><path d="M194.9,207.67c2.14-.19,4.27-.24,6.41-.25s4.26.06,6.4.25c-2.14.2-4.27.24-6.4.25S197,207.87,194.9,207.67Z" style="fill:#fff"></path><path d="M194.9,210.33c1.87-.19,3.74-.24,5.6-.25s3.74.06,5.6.25a52.34,52.34,0,0,1-5.6.25A55.35,55.35,0,0,1,194.9,210.33Z" style="fill:#fff"></path><path d="M194.9,213c2.38-.19,4.75-.24,7.12-.25s4.75.06,7.12.25c-2.37.2-4.75.25-7.12.25S197.28,213.19,194.9,213Z" style="fill:#fff"></path><path d="M286.84,109.71H266.66a10.77,10.77,0,0,1-1-4V89.53h20.18V105.9A11.38,11.38,0,0,0,286.84,109.71Z" style="fill:#455a64"></path><path d="M269.13,94.3c2.38-.19,4.75-.24,7.12-.25s4.75,0,7.12.25c-2.37.2-4.74.24-7.12.25S271.51,94.49,269.13,94.3Z" style="fill:#fff"></path><path d="M269.13,97c2.14-.19,4.27-.24,6.41-.25s4.26.05,6.4.25c-2.14.2-4.27.24-6.4.25S271.27,97.16,269.13,97Z" style="fill:#fff"></path><path d="M269.13,99.62c1.87-.19,3.74-.24,5.6-.25a55.09,55.09,0,0,1,5.6.25,62.84,62.84,0,0,1-11.2,0Z" style="fill:#fff"></path><path d="M269.13,102.28c2.38-.19,4.75-.24,7.12-.25s4.75.06,7.12.25c-2.37.2-4.74.24-7.12.25S271.51,102.48,269.13,102.28Z" style="fill:#fff"></path><path d="M217.69,119.45H197.52a10.77,10.77,0,0,1-1-4V99.27h20.17v16.37A11.38,11.38,0,0,0,217.69,119.45Z" style="fill:#37474f"></path><path d="M200,104c2.37-.19,4.74-.24,7.12-.25s4.74,0,7.11.25c-2.37.2-4.74.24-7.11.25S202.36,104.24,200,104Z" style="fill:#fff"></path><path d="M200,106.7c2.13-.19,4.27-.24,6.4-.25s4.27.06,6.4.25c-2.13.2-4.27.24-6.4.25S202.12,106.9,200,106.7Z" style="fill:#fff"></path><path d="M200,109.36c1.86-.19,3.73-.24,5.6-.25s3.73.06,5.6.25a62.84,62.84,0,0,1-11.2,0Z" style="fill:#fff"></path><path d="M200,112c2.37-.19,4.74-.24,7.12-.25s4.74.06,7.11.25c-2.37.2-4.74.24-7.11.25S202.36,112.22,200,112Z" style="fill:#fff"></path><path d="M315.41,215.9H295.23a10.76,10.76,0,0,1-1-4V195.73h20.18V212.1A11.38,11.38,0,0,0,315.41,215.9Z" style="fill:#37474f"></path><path d="M297.7,200.49c2.37-.19,4.75-.24,7.12-.25s4.74.06,7.12.25c-2.38.2-4.75.25-7.12.25S300.07,200.69,297.7,200.49Z" style="fill:#fff"></path><path d="M297.7,203.16c2.13-.2,4.27-.24,6.4-.25s4.27.05,6.41.25c-2.14.19-4.27.24-6.41.24S299.83,203.35,297.7,203.16Z" style="fill:#fff"></path><path d="M297.7,205.82a55.22,55.22,0,0,1,5.6-.25,52.46,52.46,0,0,1,5.6.25c-1.87.19-3.73.24-5.6.25S299.57,206,297.7,205.82Z" style="fill:#fff"></path><path d="M297.7,208.48c2.37-.2,4.75-.24,7.12-.25s4.74.05,7.12.25c-2.38.19-4.75.24-7.12.25S300.07,208.67,297.7,208.48Z" style="fill:#fff"></path><path d="M355,166.42H339a28.51,28.51,0,0,1-.34-4V146.25h20.18v16.37C358.79,164.25,355,166.42,355,166.42Z" style="fill:#455a64"></path><path d="M358.78,162.61c0,1.59-3.56,3.67-3.78,3.8.59-.4.49-3.56.49-3.56A19.76,19.76,0,0,1,358.78,162.61Z" style="fill:#37474f"></path><path d="M341.58,151c2.37-.19,4.74-.24,7.12-.25s4.74.06,7.11.25c-2.37.2-4.74.24-7.11.25S344,151.21,341.58,151Z" style="fill:#fff"></path><path d="M341.58,153.67c1.86-.19,3.73-.24,5.6-.25s3.73.06,5.6.25a62.85,62.85,0,0,1-11.2,0Z" style="fill:#fff"></path><path d="M341.58,156.33c1.86-.19,3.73-.24,5.6-.25s3.73.06,5.6.25a52.58,52.58,0,0,1-5.6.25A55.09,55.09,0,0,1,341.58,156.33Z" style="fill:#fff"></path><path d="M279.54,180.6h16a28.51,28.51,0,0,0,.34-4V160.42H275.75V176.8C275.75,178.43,279.54,180.6,279.54,180.6Z" style="fill:#455a64"></path><path d="M275.75,176.79c0,1.59,3.56,3.67,3.78,3.8-.59-.4-.49-3.56-.49-3.56A19.76,19.76,0,0,0,275.75,176.79Z" style="fill:#37474f"></path><path d="M278.72,165.19c2.38-.19,4.75-.24,7.12-.25s4.75.06,7.12.25c-2.37.2-4.75.24-7.12.25S281.1,165.39,278.72,165.19Z" style="fill:#fff"></path><path d="M278.72,167.85c1.87-.19,3.74-.24,5.6-.25s3.74.06,5.6.25a62.85,62.85,0,0,1-11.2,0Z" style="fill:#fff"></path><path d="M278.72,170.51c1.87-.19,3.74-.24,5.6-.25s3.74.06,5.6.25a62.85,62.85,0,0,1-11.2,0Z" style="fill:#fff"></path><path d="M133,113.88h-16a27.76,27.76,0,0,1-.35-4V93.7h20.18v16.37C136.77,111.71,133,113.88,133,113.88Z" style="fill:#455a64"></path><path d="M136.77,110.07c0,1.59-3.56,3.67-3.78,3.8.59-.4.49-3.56.49-3.56A19.76,19.76,0,0,1,136.77,110.07Z" style="fill:#37474f"></path><path d="M119.57,98.47c2.37-.19,4.74-.24,7.11-.25s4.75,0,7.12.25c-2.37.2-4.74.24-7.12.25S121.94,98.66,119.57,98.47Z" style="fill:#fff"></path><path d="M119.57,101.13c1.86-.19,3.73-.24,5.6-.25a55.35,55.35,0,0,1,5.6.25,62.84,62.84,0,0,1-11.2,0Z" style="fill:#fff"></path><path d="M119.57,103.79c1.86-.19,3.73-.24,5.6-.25a55.35,55.35,0,0,1,5.6.25,62.85,62.85,0,0,1-11.2,0Z" style="fill:#fff"></path><path d="M229.18,131.71h-16a27.72,27.72,0,0,1-.35-4V111.53H233V127.9C233,129.54,229.18,131.71,229.18,131.71Z" style="fill:#FFC727"></path><path d="M233,127.9c0,1.59-3.56,3.67-3.78,3.8.59-.4.49-3.56.49-3.56A19.76,19.76,0,0,1,233,127.9Z" style="opacity:0.2"></path><path d="M215.76,116.3c2.38-.19,4.75-.24,7.12-.25s4.75.06,7.12.25c-2.37.2-4.75.24-7.12.25S218.14,116.5,215.76,116.3Z" style="fill:#fff"></path><path d="M215.76,119c1.87-.19,3.74-.24,5.6-.25s3.74.06,5.6.25a62.84,62.84,0,0,1-11.2,0Z" style="fill:#fff"></path><path d="M215.76,121.62c1.87-.19,3.74-.24,5.6-.25s3.74.06,5.6.25a62.84,62.84,0,0,1-11.2,0Z" style="fill:#fff"></path><path d="M128.76,67.33h-1.12v3.74a.37.37,0,0,1-.38.38.39.39,0,0,1-.39-.38V67.33h-1.1a.4.4,0,0,1-.39-.4.38.38,0,0,1,.39-.38h3a.38.38,0,0,1,.38.38A.4.4,0,0,1,128.76,67.33Z" style="fill:#dbdbdb"></path><path d="M133.78,67.16a2.59,2.59,0,0,1,0,3.54,2.29,2.29,0,0,1-1.68.75,2.32,2.32,0,0,1-1.71-.75,2.59,2.59,0,0,1,0-3.54,2.32,2.32,0,0,1,1.71-.75A2.29,2.29,0,0,1,133.78,67.16Zm-.09,1.77a1.81,1.81,0,0,0-.48-1.23,1.54,1.54,0,0,0-1.11-.49,1.52,1.52,0,0,0-1.13.49,1.77,1.77,0,0,0-.48,1.23,1.72,1.72,0,0,0,.48,1.22,1.53,1.53,0,0,0,1.13.5,1.55,1.55,0,0,0,1.11-.5A1.77,1.77,0,0,0,133.69,68.93Z" style="fill:#dbdbdb"></path><path d="M138,71.07V66.93a.38.38,0,0,1,.39-.38h.82a2.45,2.45,0,1,1,0,4.9h-.82A.38.38,0,0,1,138,71.07Zm.78-.4h.43a1.67,1.67,0,1,0,0-3.34h-.43Z" style="fill:#dbdbdb"></path><path d="M146.75,67.16a2.56,2.56,0,0,1,0,3.54,2.25,2.25,0,0,1-1.67.75,2.36,2.36,0,0,1-1.72-.75,2.62,2.62,0,0,1,0-3.54,2.36,2.36,0,0,1,1.72-.75A2.25,2.25,0,0,1,146.75,67.16Zm-.09,1.77a1.85,1.85,0,0,0-.47-1.23,1.54,1.54,0,0,0-1.11-.49,1.52,1.52,0,0,0-1.13.49,1.77,1.77,0,0,0-.48,1.23,1.72,1.72,0,0,0,.48,1.22,1.53,1.53,0,0,0,1.13.5,1.55,1.55,0,0,0,1.11-.5A1.81,1.81,0,0,0,146.66,68.93Z" style="fill:#dbdbdb"></path><path d="M189.15,66.93a.38.38,0,0,1,.38-.38.4.4,0,0,1,.4.38v4.14a.4.4,0,0,1-.4.38.38.38,0,0,1-.38-.38Z" style="fill:#dbdbdb"></path><path d="M192,71.07a.39.39,0,0,1-.38.38.38.38,0,0,1-.39-.38V67h0a.36.36,0,0,1,.16-.32.38.38,0,0,1,.53.08l2.26,3.13V67a.38.38,0,0,1,.76,0v4.07a.38.38,0,0,1-.38.38.37.37,0,0,1-.29-.14s0,0,0,0L192,68.16Z" style="fill:#dbdbdb"></path><path d="M200.37,69.55h-.86v1.52a.39.39,0,0,1-.78,0V66.93a.39.39,0,0,1,.39-.38h1.25a1.5,1.5,0,1,1,0,3Zm-.86-.78h.86a.72.72,0,1,0,0-1.44h-.86Z" style="fill:#dbdbdb"></path><path d="M206.06,70.87a.39.39,0,0,1-.25.49l-.15,0h0a.44.44,0,0,1-.27-.08.66.66,0,0,1-.23-.24,1.85,1.85,0,0,1-.15-.84.51.51,0,0,0-.08-.3.7.7,0,0,0-.21-.21,1.43,1.43,0,0,0-.39-.16h-.83v1.52a.39.39,0,0,1-.78,0V66.93a.38.38,0,0,1,.39-.38h1.25a1.5,1.5,0,0,1,1,2.65,1.2,1.2,0,0,1,.24.26,1.34,1.34,0,0,1,.23.76,2.62,2.62,0,0,0,0,.41A.42.42,0,0,1,206.06,70.87Zm-1-2.82a.73.73,0,0,0-.73-.72h-.86v1.44h.86A.73.73,0,0,0,205.08,68.05Z" style="fill:#dbdbdb"></path><path d="M210.93,67.16a2.56,2.56,0,0,1,0,3.54,2.25,2.25,0,0,1-1.67.75,2.36,2.36,0,0,1-1.72-.75,2.62,2.62,0,0,1,0-3.54,2.36,2.36,0,0,1,1.72-.75A2.25,2.25,0,0,1,210.93,67.16Zm-.09,1.77a1.85,1.85,0,0,0-.47-1.23,1.54,1.54,0,0,0-1.11-.49,1.52,1.52,0,0,0-1.13.49,1.77,1.77,0,0,0-.48,1.23,1.72,1.72,0,0,0,.48,1.22,1.53,1.53,0,0,0,1.13.5,1.55,1.55,0,0,0,1.11-.5A1.81,1.81,0,0,0,210.84,68.93Z" style="fill:#dbdbdb"></path><path d="M212.8,68.94A2.59,2.59,0,0,1,217,67a.4.4,0,0,1,.08.56.41.41,0,0,1-.57.07,1.75,1.75,0,0,0-1.1-.38,1.72,1.72,0,0,0-1.26.51,1.65,1.65,0,0,0,0,2.42,1.72,1.72,0,0,0,1.26.51,1.94,1.94,0,0,0,1-.26v-1h-1a.41.41,0,0,1-.4-.4.39.39,0,0,1,.4-.39h1.4a.39.39,0,0,1,.4.39v1.55a.5.5,0,0,1,0,.12,0,0,0,0,1,0,0h0a.34.34,0,0,1-.13.17,2.63,2.63,0,0,1-1.59.54A2.54,2.54,0,0,1,212.8,68.94Z" style="fill:#dbdbdb"></path><path d="M222,70.87a.38.38,0,0,1-.25.49l-.15,0h0a.45.45,0,0,1-.27-.08.57.57,0,0,1-.22-.24,1.85,1.85,0,0,1-.15-.84.59.59,0,0,0-.09-.3.6.6,0,0,0-.21-.21,1.22,1.22,0,0,0-.39-.16h-.82v1.52a.39.39,0,0,1-.4.38.38.38,0,0,1-.38-.38V66.93a.38.38,0,0,1,.38-.38h1.26a1.5,1.5,0,0,1,1.5,1.5,1.47,1.47,0,0,1-.55,1.15,1.24,1.24,0,0,1,.25.26,1.34,1.34,0,0,1,.23.76,2,2,0,0,0,0,.41A.38.38,0,0,1,222,70.87Zm-1-2.82a.72.72,0,0,0-.72-.72h-.86v1.44h.86A.72.72,0,0,0,221,68.05Z" style="fill:#dbdbdb"></path><path d="M223.09,71.07V66.93a.38.38,0,0,1,.39-.38h2.29a.39.39,0,0,1,.38.38.4.4,0,0,1-.38.4h-1.9v1.28h1.63a.39.39,0,1,1,0,.78h-1.63v1.28h1.9a.4.4,0,0,1,.38.4.39.39,0,0,1-.38.38H223.5s0,0,0,0h0A.38.38,0,0,1,223.09,71.07Z" style="fill:#dbdbdb"></path><path d="M227.09,70.23a.37.37,0,0,1,.51,0,2.22,2.22,0,0,0,1.34.54,1.45,1.45,0,0,0,.87-.26.62.62,0,0,0,.3-.5.4.4,0,0,0-.06-.22.59.59,0,0,0-.21-.21,2.54,2.54,0,0,0-1-.33h0a4,4,0,0,1-.91-.28,1.55,1.55,0,0,1-.65-.54,1.15,1.15,0,0,1-.16-.58,1.3,1.3,0,0,1,.56-1,2.07,2.07,0,0,1,1.21-.37,2.75,2.75,0,0,1,1.53.56.36.36,0,1,1-.4.6,2,2,0,0,0-1.13-.45,1.34,1.34,0,0,0-.78.24.57.57,0,0,0-.27.44.39.39,0,0,0,0,.2.83.83,0,0,0,.19.18,2.34,2.34,0,0,0,.88.31h0a4.26,4.26,0,0,1,1,.29,1.74,1.74,0,0,1,.7.58,1.2,1.2,0,0,1,.17.6,1.38,1.38,0,0,1-.61,1.09,2.19,2.19,0,0,1-1.29.39,3,3,0,0,1-1.8-.7A.37.37,0,0,1,227.09,70.23Z" style="fill:#dbdbdb"></path><path d="M231.69,70.23a.37.37,0,0,1,.51,0,2.22,2.22,0,0,0,1.34.54,1.45,1.45,0,0,0,.87-.26.62.62,0,0,0,.3-.5.4.4,0,0,0-.06-.22.69.69,0,0,0-.21-.21,2.54,2.54,0,0,0-1-.33h0a4,4,0,0,1-.91-.28,1.55,1.55,0,0,1-.65-.54,1.15,1.15,0,0,1-.16-.58,1.3,1.3,0,0,1,.56-1,2.07,2.07,0,0,1,1.21-.37,2.78,2.78,0,0,1,1.53.56.36.36,0,1,1-.4.6,2,2,0,0,0-1.13-.45,1.34,1.34,0,0,0-.78.24.57.57,0,0,0-.27.44.39.39,0,0,0,.05.2.83.83,0,0,0,.19.18,2.34,2.34,0,0,0,.88.31h0a4.26,4.26,0,0,1,1,.29,1.74,1.74,0,0,1,.7.58,1.19,1.19,0,0,1,.16.6,1.37,1.37,0,0,1-.6,1.09,2.19,2.19,0,0,1-1.29.39,3,3,0,0,1-1.8-.7A.37.37,0,0,1,231.69,70.23Z" style="fill:#dbdbdb"></path><path d="M276,67.33h-1.11v3.74a.38.38,0,0,1-.38.38.39.39,0,0,1-.39-.38V67.33H273a.4.4,0,0,1-.38-.4.38.38,0,0,1,.38-.38h3a.39.39,0,0,1,.39.38A.41.41,0,0,1,276,67.33Z" style="fill:#dbdbdb"></path><path d="M277.51,71.07V66.93a.38.38,0,0,1,.39-.38h2.29a.39.39,0,0,1,.38.38.4.4,0,0,1-.38.4h-1.9v1.28h1.63a.39.39,0,1,1,0,.78h-1.63v1.28h1.9a.4.4,0,0,1,.38.4.39.39,0,0,1-.38.38h-2.27a0,0,0,0,1,0,0h0A.38.38,0,0,1,277.51,71.07Z" style="fill:#dbdbdb"></path><path d="M281.51,70.23a.37.37,0,0,1,.51,0,2.22,2.22,0,0,0,1.34.54,1.45,1.45,0,0,0,.87-.26.64.64,0,0,0,.31-.5.41.41,0,0,0-.07-.22.59.59,0,0,0-.21-.21,2.47,2.47,0,0,0-1-.33h0a3.8,3.8,0,0,1-.9-.28,1.52,1.52,0,0,1-.66-.54,1.15,1.15,0,0,1-.16-.58,1.3,1.3,0,0,1,.56-1,2.07,2.07,0,0,1,1.21-.37,2.75,2.75,0,0,1,1.53.56.37.37,0,0,1,.1.5.36.36,0,0,1-.5.1,2,2,0,0,0-1.13-.45,1.34,1.34,0,0,0-.78.24.57.57,0,0,0-.27.44.39.39,0,0,0,0,.2.83.83,0,0,0,.19.18,2.34,2.34,0,0,0,.88.31h0a4.26,4.26,0,0,1,1,.29,1.67,1.67,0,0,1,.7.58,1.2,1.2,0,0,1,.17.6,1.4,1.4,0,0,1-.6,1.09,2.22,2.22,0,0,1-1.3.39,2.93,2.93,0,0,1-1.79-.7A.36.36,0,0,1,281.51,70.23Z" style="fill:#dbdbdb"></path><path d="M289.23,67.33h-1.12v3.74a.38.38,0,0,1-.38.38.39.39,0,0,1-.39-.38V67.33h-1.1a.4.4,0,0,1-.39-.4.38.38,0,0,1,.39-.38h3a.38.38,0,0,1,.38.38A.4.4,0,0,1,289.23,67.33Z" style="fill:#dbdbdb"></path><path d="M290.81,66.93a.38.38,0,0,1,.39-.38.39.39,0,0,1,.39.38v4.14a.39.39,0,0,1-.39.38.38.38,0,0,1-.39-.38Z" style="fill:#dbdbdb"></path><path d="M293.67,71.07a.39.39,0,0,1-.38.38.37.37,0,0,1-.38-.38V67h0a.38.38,0,0,1,.68-.24l2.26,3.13V67a.38.38,0,0,1,.38-.38.39.39,0,0,1,.39.38v4.07a.39.39,0,0,1-.39.38.35.35,0,0,1-.28-.14s0,0,0,0l-2.24-3.11Z" style="fill:#dbdbdb"></path><path d="M297.73,68.94a2.59,2.59,0,0,1,4.18-2,.4.4,0,0,1,.08.56.41.41,0,0,1-.57.07,1.81,1.81,0,0,0-2.37.13,1.67,1.67,0,0,0,0,2.42,1.76,1.76,0,0,0,1.26.51,1.94,1.94,0,0,0,1-.26v-1h-1a.4.4,0,0,1-.4-.4.39.39,0,0,1,.4-.39h1.4a.39.39,0,0,1,.4.39v1.55a.5.5,0,0,1,0,.12,0,0,0,0,0,0,0h0a.44.44,0,0,1-.14.17,2.59,2.59,0,0,1-1.59.54A2.54,2.54,0,0,1,297.73,68.94Z" style="fill:#dbdbdb"></path><path d="M353.92,71.07V66.93a.38.38,0,0,1,.39-.38h.82a2.45,2.45,0,1,1,0,4.9h-.82A.38.38,0,0,1,353.92,71.07Zm.78-.4h.43a1.67,1.67,0,1,0,0-3.34h-.43Z" style="fill:#dbdbdb"></path><path d="M362.72,67.16a2.59,2.59,0,0,1,0,3.54,2.29,2.29,0,0,1-1.68.75,2.32,2.32,0,0,1-1.71-.75,2.59,2.59,0,0,1,0-3.54,2.32,2.32,0,0,1,1.71-.75A2.29,2.29,0,0,1,362.72,67.16Zm-.09,1.77a1.81,1.81,0,0,0-.48-1.23,1.54,1.54,0,0,0-1.11-.49,1.52,1.52,0,0,0-1.13.49,1.77,1.77,0,0,0-.48,1.23,1.72,1.72,0,0,0,.48,1.22,1.53,1.53,0,0,0,1.13.5,1.55,1.55,0,0,0,1.11-.5A1.77,1.77,0,0,0,362.63,68.93Z" style="fill:#dbdbdb"></path><path d="M365.39,71.07a.39.39,0,0,1-.38.38.37.37,0,0,1-.38-.38V67h0a.35.35,0,0,1,.15-.32.38.38,0,0,1,.53.08l2.26,3.13V67a.38.38,0,0,1,.38-.38.39.39,0,0,1,.39.38v4.07a.39.39,0,0,1-.39.38.37.37,0,0,1-.29-.14l0,0-2.24-3.11Z" style="fill:#dbdbdb"></path><path d="M369.56,71.07V66.93a.38.38,0,0,1,.39-.38h2.29a.39.39,0,0,1,.38.38.4.4,0,0,1-.38.4h-1.9v1.28H372a.39.39,0,0,1,.38.38.39.39,0,0,1-.38.4h-1.63v1.28h1.9a.4.4,0,0,1,.38.4.39.39,0,0,1-.38.38H370s0,0,0,0h0A.38.38,0,0,1,369.56,71.07Z" style="fill:#dbdbdb"></path><path d="M211.19,91.29a36.71,36.71,0,0,0-19,8.14,25,25,0,0,0-6.43,8.07,18.81,18.81,0,0,0-1.6,4.89,17.31,17.31,0,0,0-.1,5.13,15.69,15.69,0,0,0,4.27,9.12,20.53,20.53,0,0,0,8.82,5.09,41,41,0,0,0,10.24,1.6,65.67,65.67,0,0,0,10.4-.42,33.89,33.89,0,0,0,9.93-2.81,26.71,26.71,0,0,0,8.34-6,21.41,21.41,0,0,0,5-8.87,14.66,14.66,0,0,0-.56-10,17.51,17.51,0,0,0-7-7.33,31.86,31.86,0,0,0-9.7-3.69,39.85,39.85,0,0,0-20.69,1.08,40.12,40.12,0,0,1,20.79-1.54,31.76,31.76,0,0,1,9.91,3.62,18.23,18.23,0,0,1,7.39,7.55,13.25,13.25,0,0,1,1.29,5.21,17.09,17.09,0,0,1-.58,5.33,22.32,22.32,0,0,1-5.19,9.27,27.76,27.76,0,0,1-8.6,6.24,34.36,34.36,0,0,1-10.21,2.94,65.61,65.61,0,0,1-10.58.38,41.85,41.85,0,0,1-10.46-1.69,21.41,21.41,0,0,1-9.17-5.35,16.25,16.25,0,0,1-4.4-9.63,17.72,17.72,0,0,1,.17-5.34,19.5,19.5,0,0,1,1.72-5,25.3,25.3,0,0,1,6.68-8.17A36.89,36.89,0,0,1,211.19,91.29Z" style="fill:#263238"></path><path d="M144.13,105a20,20,0,0,1,6.6-6.73,14.47,14.47,0,0,1,4.45-1.78,15.39,15.39,0,0,1,4.79-.19,11.44,11.44,0,0,1,8.24,4.66,8.12,8.12,0,0,1,1.07,2.24,4.84,4.84,0,0,1,.11,2.54,2.88,2.88,0,0,1-4.42,1.74,3.86,3.86,0,0,1-1.29-2.31,8.49,8.49,0,0,1-.09-2.51A12.53,12.53,0,0,1,165.11,98a14.16,14.16,0,0,1,7.3-6.3,14,14,0,0,1,9.57-.39A16.36,16.36,0,0,1,189.6,97l-.15.12a16.89,16.89,0,0,0-7.7-5,12.59,12.59,0,0,0-4.52-.46,14.43,14.43,0,0,0-4.42,1.11,13.76,13.76,0,0,0-6.74,5.85,11.93,11.93,0,0,0-1.46,4.25,7.36,7.36,0,0,0,0,2.2,3,3,0,0,0,.89,1.77,1.79,1.79,0,0,0,1.8.19,1.92,1.92,0,0,0,1.23-1.41,5.48,5.48,0,0,0-1-4.15,10.75,10.75,0,0,0-7.67-4.48,15.89,15.89,0,0,0-4.62.09,14.22,14.22,0,0,0-4.36,1.6,19.71,19.71,0,0,0-6.69,6.47Z" style="fill:#263238"></path><polygon points="184.4 96.35 189.21 96.8 189.31 91.97 190.17 97.87 184.4 96.35" style="fill:#263238"></polygon><path d="M269,165.08a48.34,48.34,0,0,0-1.71,13.41,35.58,35.58,0,0,0,2.43,13.18,26.38,26.38,0,0,0,3.24,5.83,30.16,30.16,0,0,0,10,8.65c1,.6,2,1,3,1.53s2.09.85,3.13,1.29l-.07.25a31.88,31.88,0,0,1-12.28-6A26.29,26.29,0,0,1,268.88,192a36.54,36.54,0,0,1-2.17-13.49,49.27,49.27,0,0,1,2.14-13.44Z" style="fill:#263238"></path><polygon points="283.79 211.12 288.67 208.92 286.12 204.21 290.18 209.43 283.79 211.12" style="fill:#263238"></polygon><path d="M334.85,119.58c2-.15,3.95-.22,5.92-.28s4-.08,5.93-.09,3.95,0,5.92.08,3.95.14,5.93.29c-2,.16-3.95.23-5.93.29s-3.95.08-5.92.09-3.95,0-5.93-.09S336.82,119.74,334.85,119.58Z" style="fill:#263238"></path><path d="M334.85,122.41a55.71,55.71,0,0,1,12.82,0,54.25,54.25,0,0,1-12.82,0Z" style="fill:#263238"></path><path d="M334.85,125.24c1.75-.15,3.49-.22,5.24-.28s3.49-.08,5.24-.09,3.5,0,5.24.09,3.5.13,5.24.28c-1.74.16-3.49.23-5.24.29s-3.49.08-5.24.09-3.49,0-5.24-.09S336.6,125.4,334.85,125.24Z" style="fill:#263238"></path><path d="M334.85,128.08c1.42-.16,2.84-.23,4.26-.29s2.85-.08,4.27-.09,2.84,0,4.26.09,2.85.13,4.27.29c-1.42.15-2.84.22-4.27.28s-2.84.08-4.26.09-2.84,0-4.27-.09S336.27,128.23,334.85,128.08Z" style="fill:#263238"></path><path d="M215.12,189.07c2-.15,3.95-.22,5.92-.29s4-.07,5.92-.08,3.95,0,5.93.08,4,.14,5.92.29c-2,.16-3.95.23-5.92.29s-3.95.08-5.93.09-4,0-5.92-.09S217.09,189.23,215.12,189.07Z" style="fill:#263238"></path><path d="M215.12,191.9c1.52-.15,3-.22,4.57-.28s3.05-.08,4.57-.09,3.05,0,4.58.08,3,.14,4.57.29c-1.52.16-3,.23-4.57.29s-3.05.08-4.58.09-3,0-4.57-.09S216.64,192.06,215.12,191.9Z" style="fill:#263238"></path><path d="M215.12,194.73c1.74-.15,3.49-.22,5.24-.28s3.49-.08,5.24-.09,3.49,0,5.24.09,3.49.13,5.24.28c-1.75.16-3.49.23-5.24.29s-3.49.08-5.24.09-3.5,0-5.24-.09S216.86,194.89,215.12,194.73Z" style="fill:#263238"></path></g><g id="freepik--Plant--inject-12"><path d="M211.65,340.64a57.61,57.61,0,0,0-1.84,10.46c.09.18.07.83,0,.65,0,.57-.9.47-.9-.1,0-.37,0-.74,0-1.1-2-2.53-5-4.14-7.41-6.35a13.8,13.8,0,0,1-4.06-6.46c-2-6.86-.13-14.12-2.52-21-2.06-5.9-5.76-11-8.9-16.37-3.3-5.65-5.74-11.58-6-18.2-.2-5.07.41-11.82,4.27-15.62,4.09-4,9.16-1,12.29,2.59,9.08,10.42,13.29,23.59,15,37.06.93,7.45,1.91,14.95,1.68,22.48A60.54,60.54,0,0,1,211.65,340.64Z" style="fill:#FFC727"></path><path d="M209.84,353.84a128.39,128.39,0,0,0-.24-21.12.15.15,0,0,0,0-.07c.12-5.71.57-11.4.34-17.11a101.28,101.28,0,0,0-2.51-18.35c0-.07-.12-.06-.11,0a120.23,120.23,0,0,1,2,17.95c.11,3.22.09,6.45-.08,9.68-.06,1-.15,2.1-.22,3.16h0a113.12,113.12,0,0,0-17-45c-.12-.18-.45,0-.33.21a117.29,117.29,0,0,1,13.82,33.32c-4.36-8.09-11-14.74-15.85-22.52,0,0-.1,0-.08,0,4.4,8.65,11.66,15.48,16.29,24,.8,3.47,1.46,7,1.95,10.51a119.06,119.06,0,0,1,1.06,14.61,167.15,167.15,0,0,1-7.6-15c-.06-.14-.26,0-.21.09,1.85,5.47,4.34,11.35,7.82,16q0,5.19-.29,10.37c-.54,9.22-2.12,18.32-2.84,27.51,0,.27.36.31.42,0A210.19,210.19,0,0,0,209.84,353.84Z" style="fill:#263238"></path><path d="M200.05,282.74c0-.07-.12,0-.1,0a145.77,145.77,0,0,1,3.85,14.15.18.18,0,0,0,.35-.05A50.32,50.32,0,0,0,200.05,282.74Z" style="fill:#263238"></path><path d="M242.82,302.26a69.5,69.5,0,0,1-3.88,7.95c-3,5.51-6.19,10.55-6.76,17a39.7,39.7,0,0,1-1.22,8.49,25.67,25.67,0,0,1-3.39,6.66c-3.29,4.78-7.39,8.91-10.44,13.88a58.36,58.36,0,0,0-6.94,16.72c-.07.33-.58.24-.5-.08a.2.2,0,0,0,0-.07l0-.07c-.48-13.75.62-27.61,4.81-40.78a141.09,141.09,0,0,1,6.67-17,39.9,39.9,0,0,1,9-12.94c2.55-2.3,8.1-6.67,11.75-4.36C243.64,298.78,243.51,300.54,242.82,302.26Z" style="fill:#FFC727"></path><path d="M229,333.42a112.19,112.19,0,0,1-8,11.49c-1.33,1.74-2.68,3.46-4,5.2-.63.82-1.33,1.64-1.91,2.52.36-1.44.72-2.89,1.09-4.33,1.77-6.95,3.48-14,6.12-20.64A139.5,139.5,0,0,1,231.84,309c.1-.16-.16-.28-.25-.12-2.91,4.78-5.86,9.55-8.3,14.58a78.12,78.12,0,0,0-3.52,8.66,132.83,132.83,0,0,1,4.69-18.49,0,0,0,0,0-.09,0,63.41,63.41,0,0,0-4.86,19.23s0,0,0,0c-.6,1.78-1.14,3.58-1.66,5.4-2.16,7.69-4.06,15.46-5.83,23.26a83.56,83.56,0,0,1,1.33-15.29c0-.11-.15-.14-.18,0a48.38,48.38,0,0,0-1.33,16.12q-1,4.46-1.95,8.91c-1.35,6.33-3,12.78-3.8,19.22a.13.13,0,0,0,.26,0c.94-3.47,1.51-7.06,2.28-10.57s1.57-7,2.39-10.56q1.78-7.67,3.72-15.31c.85-1.87,2.5-3.53,3.73-5.09,1.35-1.72,2.71-3.44,4-5.19a76.78,76.78,0,0,0,6.62-10.24C229.16,333.4,229,333.35,229,333.42Z" style="fill:#263238"></path><path d="M229.59,327.54A71.35,71.35,0,0,0,221.77,340s.06.11.09.06c2.63-4.13,5.22-8.28,7.85-12.41C229.75,327.55,229.64,327.48,229.59,327.54Z" style="fill:#263238"></path><path d="M171.06,315.29c1.78,3.07,3.81,6.75,3.05,10.44-.49,2.33-2.19,4.23-2.5,6.6-.69,5.26,4.54,8.73,8.33,11.21,9.44,6.19,22.39,11.71,24.1,24.36.07.45.84.34.79-.1a.24.24,0,0,0,0-.08s0,0,0-.08a48.34,48.34,0,0,0-.17-19.32c-1.41-6.52-4.26-12.38-7.61-18.1-5.69-9.7-11.7-19.62-20.29-27.05-2.38-2.05-7.25-5.74-9.15-1.11S168.88,311.55,171.06,315.29Z" style="fill:#FFC727"></path><path d="M179.7,335.84c6.26,6.78,16.21,10.58,21.6,18.17a76,76,0,0,0-16.6-31.18.24.24,0,0,1,.34-.35,61.59,61.59,0,0,1,13.57,19.65,88.63,88.63,0,0,0-5.84-14.94c-.09-.19.17-.34.27-.16a56.79,56.79,0,0,1,6.3,16.79c7.1,17.18,7.76,37.34,6.27,55.46,0,.25-.42.26-.41,0,.41-14.28.18-28.8-3.24-42.75l-.23-.86c-5.86-8.17-15.77-12-22.14-19.72C179.53,335.87,179.63,335.77,179.7,335.84Z" style="fill:#263238"></path><path d="M178.25,330c3.28,3,6.52,6.1,9.81,9.11,0,0,0,.09-.05.06a48,48,0,0,1-10-9A.14.14,0,0,1,178.25,330Z" style="fill:#263238"></path><path d="M177.73,317a102.5,102.5,0,0,0,9.83,13.52c.05.06,0,.14-.08.09a47.79,47.79,0,0,1-9.93-13.51A.1.1,0,0,1,177.73,317Z" style="fill:#263238"></path><polygon points="192.52 412.05 221.3 412.05 217.43 373.33 196.96 373.33 192.52 412.05" style="fill:#455a64"></polygon><polygon points="196.23 379.62 218.06 379.62 217.43 373.33 196.95 373.33 196.23 379.62" style="fill:#263238"></polygon><rect x="193.42" y="369.04" width="26.98" height="6.18" transform="translate(413.83 744.26) rotate(180)" style="fill:#455a64"></rect></g><g id="freepik--character-1--inject-12"><path d="M83.84,173.45C71,183.52,49,211.57,51.86,218c5.82,13,25.62,29.19,30.69,32.19,3,1.74,21.44-18.47,18.57-20.74-3.36-2.66-23.81-16.73-24.1-18.37-.22-1.26,8-16.25,13.86-28.84C97.67,167.66,90,168.66,83.84,173.45Z" style="fill: rgb(235, 148, 129);"></path><path d="M98.07,228.08s9.51,4.28,15.6,7.38c3.4,1.72,9,5.2,10.87,7.61,2.86,3.61,12.54,20.51,8.49,22.94-3.66,2.21-10.13-13.37-10.13-13.37s7.92,15.14,3,17-9.87-16.73-9.87-16.73,7.79,15.74,2.43,16.84c-4,.84-9.49-15.73-9.49-15.73s6.6,13.57,2.47,14.61c-4.55,1.14-10.54-13.84-10.54-13.84-10.93.87-18-2.47-20.84-7.7C79.51,246,98.07,228.08,98.07,228.08Z" style="fill: rgb(235, 148, 129);"></path><path d="M120.5,247.23c1,1.74,2,3.5,2.85,5.33s1.6,3.68,2.27,5.58a34.26,34.26,0,0,1,1.87,7.63c-.93-4.58-3.82-11.17-4.65-13s-1.58-3.69-2.41-5.51C120.4,247.21,120.47,247.19,120.5,247.23Z" style="fill:#263238"></path><path d="M113.84,250.13c1.18,2.28,2.43,4.5,3.5,6.84s1.88,4.62,2.78,7c.07.19-.05.16-.13,0-1-2.35-2.1-4.45-3.13-6.79s-2-4.73-3.07-7A0,0,0,1,1,113.84,250.13Z" style="fill:#263238"></path><path d="M107.69,251.59a57.53,57.53,0,0,1,4.54,10.87c.06.18-.09.14-.17,0-1.44-3.64-2.54-6.51-4.49-10.75C107.54,251.59,107.64,251.52,107.69,251.59Z" style="fill:#263238"></path><path d="M96.14,225.4,78.38,250.15S50.5,225.68,50.61,216.48s20.09-33.83,31.68-42.73,13.74-1.88,9.53,8.42S77.78,211,78.1,211.45,96.14,225.4,96.14,225.4Z" style="fill:#FFC727"></path><path d="M82.87,234.09c1.29-1.63,2.55-3.3,3.8-5,.6-.8,1.21-1.59,1.79-2.41s1.33-1.73,1.88-2.65a.06.06,0,0,0-.09-.08c-.76.76-1.43,1.65-2.14,2.45s-1.29,1.53-1.92,2.3c-1.32,1.61-2.65,3.22-3.93,4.86-2.58,3.28-5.05,6.63-7.49,10a.08.08,0,0,0,.13.1C77.61,240.55,80.28,237.36,82.87,234.09Z" style="fill:#263238"></path><path d="M57.43,384.86s.33,38.09.33,38.12c0,7.29.17,13.67.56,17a0,0,0,0,0,0,.05,5,5,0,0,0,.55,2.25.1.1,0,0,0,0,.05c2.17,1.46,60.4,3,62.45,2.34s.41-6.52-1.8-8.38S95.3,423.85,95.3,423.85l-.68-38.08Z" style="fill: rgb(235, 148, 129);"></path><path d="M57.69,415.16s.07,7.79.07,7.82c0,7.29.17,13.67.56,17a0,0,0,0,0,0,.05,9.75,9.75,0,0,0,.55,2.25.1.1,0,0,0,0,.05c2.17,1.46,60.4,3,62.45,2.34s.41-6.52-1.8-8.38S95.3,423.85,95.3,423.85l0-7.94Z" style="fill:#fff"></path><path d="M98.87,423.87c-3.88-.64-8.59.05-11.48,2.87-.12.11,0,.27.16.22a54.75,54.75,0,0,1,11.31-2.6A.25.25,0,0,0,98.87,423.87Z" style="fill:#263238"></path><path d="M101.69,425.49c-3.88-.64-8.59.06-11.48,2.87-.11.11,0,.27.17.22a54.6,54.6,0,0,1,11.31-2.6A.25.25,0,0,0,101.69,425.49Z" style="fill:#263238"></path><path d="M104.51,427.11c-3.87-.64-8.58.06-11.48,2.87-.11.11,0,.27.17.23a54.13,54.13,0,0,1,11.31-2.61A.25.25,0,0,0,104.51,427.11Z" style="fill:#263238"></path><path d="M121.36,444.64c-2,.63-60.27-.88-62.45-2.34-.84-.55-1.11-9-1.15-19.32v-.32l37.57.55,0,.64s22,10.55,24.26,12.41S123.41,444,121.36,444.64Z" style="fill:#37474f"></path><path d="M57.76,422.65V423c0,10.27.31,18.76,1.15,19.31s13.6,1.34,27.24,1.83c16.32.57,34.09.86,35.21.52,2-.64.4-6.53-1.81-8.39S95.3,423.85,95.3,423.85l0-.63L82.81,423Z" style="fill:#FFC727"></path><path d="M120.76,442.37c-9.81-.5-49.42-1.57-59.15-1.32-.08,0-.08.06,0,.06,9.71.71,49.32,1.46,59.14,1.42C121,442.53,121,442.38,120.76,442.37Z" style="fill:#263238"></path><path d="M82.81,423c.91,6.29,2.31,15.57,3.34,21.1,16.32.57,34.09.86,35.21.52,2-.64.4-6.53-1.81-8.39S95.3,423.85,95.3,423.85l0-.63Z" style="opacity:0.1"></path><path d="M54.37,423.2l42.13.4s11.72-155.31,1.3-196H66.3s-8.45,17.27-3.62,36.71l-1.51,69.93Z" style="fill:#37474f"></path><path d="M57.49,415.82a31.48,31.48,0,0,1,3.36-.27c1.24-.09,2.48-.18,3.73-.23q3.6-.15,7.19-.16c4.84,0,9.68,0,14.52.17,2.75.09,5.5.2,8.25.36.1,0,.1.17,0,.17-4.79.17-9.59.25-14.39.34s-9.59.19-14.38.1c-1.38,0-2.75,0-4.13-.12s-2.78,0-4.12-.2C57.43,416,57.4,415.84,57.49,415.82Z" style="fill:#263238"></path><path d="M93.47,378c.49-11.34.85-22.69,1.16-34q.93-34.05.49-68.12c-.16-12.74-.5-25.47-.88-38.21,0-.14.22-.14.23,0,1.2,22.79,1.66,45.64,1.69,68.46s-.45,45.43-1.57,68.11c-.63,12.73-1.41,25.47-2.6,38.16a.09.09,0,0,1-.18,0C92.33,400.86,93,389.41,93.47,378Z" style="fill:#263238"></path><path d="M103.83,389.8s.32,38.1.32,38.12c0,7.29.17,13.67.56,17v.05a5.16,5.16,0,0,0,.55,2.25s0,0,0,.05c2.17,1.46,60.4,3,62.45,2.34s.41-6.52-1.8-8.38-24.26-12.41-24.26-12.41L141,390.72Z" style="fill: rgb(235, 148, 129);"></path><path d="M104.08,420.1s.07,7.8.07,7.82c0,7.29.17,13.67.56,17v.05a9.59,9.59,0,0,0,.55,2.25s0,0,0,.05c2.17,1.46,60.4,3,62.45,2.34s.41-6.52-1.8-8.38-24.26-12.41-24.26-12.41l0-7.94Z" style="fill:#fff"></path><path d="M145.26,428.81c-3.88-.64-8.59.06-11.48,2.87-.12.11,0,.27.17.23a53.9,53.9,0,0,1,11.3-2.61A.25.25,0,0,0,145.26,428.81Z" style="fill:#263238"></path><path d="M148.08,430.43c-3.88-.64-8.59.06-11.48,2.87-.11.11.05.27.17.23a54.62,54.62,0,0,1,11.31-2.61A.25.25,0,0,0,148.08,430.43Z" style="fill:#263238"></path><path d="M150.91,432.05c-3.88-.63-8.59.06-11.49,2.87-.11.11.05.27.17.23a54.77,54.77,0,0,1,11.31-2.61A.25.25,0,0,0,150.91,432.05Z" style="fill:#263238"></path><path d="M167.75,449.58c-2.05.64-60.27-.88-62.45-2.34-.84-.54-1.11-9-1.15-19.32v-.32l37.57.56,0,.63s22,10.55,24.26,12.42S169.8,449,167.75,449.58Z" style="fill:#FFC727"></path><path d="M167.15,447.31c-9.81-.5-49.42-1.57-59.15-1.32-.08,0-.08.06,0,.07,9.71.7,49.32,1.45,59.14,1.41C167.35,447.47,167.36,447.32,167.15,447.31Z" style="fill:#263238"></path><path d="M84.58,267.93s12.94,56.17,12.59,64.49c-.35,8.53,4.18,96.13,4.18,96.13l43.75.26s-3.69-89.33-4.38-98.22c-1.27-16.64-15.85-62.3-26.27-103H67.28s.41,21.3,10.1,36.71C77.38,264.32,81.77,266.35,84.58,267.93Z" style="fill:#37474f"></path><path d="M69.58,260.41c3.58,2,7.3,3.76,11,5.52q2.79,1.32,5.6,2.58c.94.42,1.86.9,2.82,1.28s1.79.69,2.66,1.12a.08.08,0,0,1-.05.14,19.48,19.48,0,0,1-2.92-.63c-.9-.26-1.82-.45-2.72-.72.94,3.44,1.55,7,2.26,10.46.79,3.81,1.55,7.63,2.32,11.45q2.31,11.44,4.6,22.9c.75,3.72,1.54,7.44,2.09,11.19a92.45,92.45,0,0,1,.86,11.4c.2,7.75.29,15.5.4,23.25.13,8.72.21,17.45.09,26.17,0,.13-.2.12-.2,0-.88-15.46-1.24-30.95-1.59-46.43-.09-3.83-.15-7.67-.58-11.47s-1.16-7.45-1.91-11.14Q92,306.08,89.63,294.72,88.34,288.33,87,282c-.44-2.15-.86-4.29-1.29-6.44s-.84-4.15-1.1-6.25a50.32,50.32,0,0,1-4.72-1.87,52.36,52.36,0,0,1-10.56-6.63C69.15,260.61,69.34,260.27,69.58,260.41Z" style="fill:#263238"></path><path d="M102.1,420.49c5.26-.15,10.71-.3,16-.17s10.45.2,15.66.5c3,.17,5.9.26,8.85.54a.08.08,0,0,1,0,.15c-5.26.3-10.54.24-15.8.19s-10.44-.1-15.66-.33c-3-.13-5.9-.27-8.85-.47C102,420.88,101.78,420.49,102.1,420.49Z" style="fill:#263238"></path><path d="M111,263.16c1.46,4.88,2.69,9.84,4,14.76s2.64,9.92,4,14.89c2.53,9.61,5,19.23,6.93,29a174.31,174.31,0,0,1,3.28,29.7c.22,10.17,0,20.35-.06,30.52s-.16,20.45-.33,30.67c0,1.27,0,2.54-.1,3.81a.1.1,0,0,1-.19,0c-.27-10.17-.13-20.36-.09-30.53s.16-20.35.08-30.52a183.32,183.32,0,0,0-2.61-30.13c-1.72-9.79-4.13-19.43-6.64-29.05-1.42-5.48-2.87-11-4.29-16.44s-3-11-4.23-16.59A.16.16,0,0,1,111,263.16Z" style="fill:#263238"></path><path d="M102,179.31c-3.15.53-8.81-5-10.66-9-.12-.27.46-3,1-6.39.32-2,.64-4.34.78-6.44l13,4.08a33.66,33.66,0,0,0-1.81,8,5,5,0,0,0,0,.87s0,.09,0,.14C104.58,172.27,105.08,178.8,102,179.31Z" style="fill: rgb(235, 148, 129);"></path><path d="M104.41,170.47s0,.09,0,.15a10.45,10.45,0,0,1-1.36,0c-7.77-.83-9.23-9.67-9.5-13l12.63,4a33.81,33.81,0,0,0-1.81,8A6.16,6.16,0,0,0,104.41,170.47Z" style="fill:#263238"></path><path d="M89.37,143.65c-.8,4.85,3.46,18,7.17,20.53,5.38,3.7,13.3,3.07,16.22-3.19,2.83-6.08-3-23.08-7.08-25.31C99.7,132.39,90.55,136.49,89.37,143.65Z" style="fill: rgb(235, 148, 129);"></path><path d="M104.08,150s0,.06,0,.1c.3.88.49,1.94-.22,2.48,0,0,0,.06,0,.05C104.78,152.14,104.51,150.74,104.08,150Z" style="fill:#263238"></path><path d="M103,149.26c-1.47.33-.7,3.23.65,2.93S104.23,149,103,149.26Z" style="fill:#263238"></path><path d="M109.13,148.61s.08,0,.09.07c.21.9.6,1.91,1.49,2,0,0,0,.05,0,.05C109.68,150.84,109.18,149.51,109.13,148.61Z" style="fill:#263238"></path><path d="M109.69,147.47c1.41-.49,2.29,2.38,1,2.83S108.5,147.88,109.69,147.47Z" style="fill:#263238"></path><path d="M101.51,148.24c.37-.21.68-.45,1-.69s.72-.45.9-.9a.63.63,0,0,0-.29-.72,1.59,1.59,0,0,0-1.58.24,2.28,2.28,0,0,0-1,1.31A.67.67,0,0,0,101.51,148.24Z" style="fill:#263238"></path><path d="M110.42,145.71a10.1,10.1,0,0,1-1.23,0,1.92,1.92,0,0,1-1.25-.23.63.63,0,0,1-.16-.76,1.54,1.54,0,0,1,1.44-.68,2.31,2.31,0,0,1,1.58.49A.67.67,0,0,1,110.42,145.71Z" style="fill:#263238"></path><path d="M105.27,158.37c.27.15.56.39.9.33a2.52,2.52,0,0,0,.9-.48s.07,0,.06,0a1.25,1.25,0,0,1-1,.79,1,1,0,0,1-.91-.61C105.17,158.38,105.23,158.35,105.27,158.37Z" style="fill:#263238"></path><path d="M105.51,155.43a3.18,3.18,0,0,0,2.4.83A4.31,4.31,0,0,0,109,156l.2-.08.19-.08a.24.24,0,0,0,.13-.25h0a.36.36,0,0,0,0-.09h0l0-.08c-.16-.7-.51-1.73-.51-1.73.29.06,1.73.3,1.62-.06a48.35,48.35,0,0,0-3.62-8.95.09.09,0,0,0-.16.07c.82,2.86,2.13,5.57,3,8.44a5.56,5.56,0,0,0-1.56-.06c-.09.05.7,2,.75,2.31v0a4.41,4.41,0,0,1-3.42-.15C105.5,155.29,105.44,155.37,105.51,155.43Z" style="fill:#263238"></path><path d="M108.53,155.77a3.79,3.79,0,0,1-1.16,1.51,1.64,1.64,0,0,1-1,.32c-.77,0-1-.65-1-1.25a3.94,3.94,0,0,1,.09-.95A4.86,4.86,0,0,0,108.53,155.77Z" style="fill:#263238"></path><path d="M107.37,157.28a1.64,1.64,0,0,1-1,.32c-.77,0-1-.65-1-1.25A1.75,1.75,0,0,1,107.37,157.28Z" style="fill:#ff97b8"></path><path d="M92,154.2c3.33-.76,2.62-7,2.62-7s5.52-2.22,5.38-6.72c0,0,6.22,2.25,10.15-.26s2-7.15,1.24-8.08-2.64,1.53-2.64,1.53-.89-2.68-1.68-2.79-1.22,1.72-1.22,1.72a36.54,36.54,0,0,0-10.89.65c-5,1.26-6.31,6.86-6.31,6.86s-2.55,1.17-3,3.23S89.88,154.68,92,154.2Z" style="fill:#263238"></path><path d="M99.76,139.69a7.33,7.33,0,0,1,0,2.68,4.82,4.82,0,0,1-1.13,2.32,7.07,7.07,0,0,1-2.16,1.49c-.41.18-.84.32-1.26.48s-.88.23-1.32.37c.46,0,.91-.11,1.37-.16s.9-.22,1.34-.37A6.25,6.25,0,0,0,99,145a4.64,4.64,0,0,0,1.15-2.57A5.76,5.76,0,0,0,99.76,139.69Z" style="fill:#263238"></path><path d="M88.78,140.83a8.35,8.35,0,0,1,1.12-4.2,6.67,6.67,0,0,1,3.2-2.78,7.39,7.39,0,0,1,1-.39l1.06-.26c.71-.14,1.45-.17,2.18-.25s1.47,0,2.21,0,1.47.14,2.21.19c-.72-.15-1.46-.27-2.19-.41s-1.49-.1-2.24-.16a11.57,11.57,0,0,0-4.42.83,6.94,6.94,0,0,0-3.33,3A7.57,7.57,0,0,0,88.78,140.83Z" style="fill:#263238"></path><path d="M102.86,155.42a4.34,4.34,0,1,1,3.38-6h0a4.35,4.35,0,0,1-3.38,6Zm-1.18-8a3.76,3.76,0,1,0,4,2.28A3.79,3.79,0,0,0,101.68,147.4Z" style="fill:#FFC727"></path><path d="M112.47,152.79c-1.64.24-3.38-1.23-4-3.42a5.16,5.16,0,0,1,.1-3.17,2.71,2.71,0,0,1,4.48-1.2,5.24,5.24,0,0,1,1.67,2.7c.62,2.31-.28,4.57-2,5A1.4,1.4,0,0,1,112.47,152.79Zm-1.6-7.93-.22,0a2.34,2.34,0,0,0-1.51,1.51,4.69,4.69,0,0,0-.08,2.81c.54,2,2.12,3.33,3.54,2.95s2.12-2.32,1.59-4.32a4.65,4.65,0,0,0-1.48-2.4A2.41,2.41,0,0,0,110.87,144.86Z" style="fill:#FFC727"></path><path d="M106.23,150l-.48-.34c.5-.7,1.77-1.81,3.09-1l-.31.49C107.36,148.4,106.27,149.91,106.23,150Z" style="fill:#FFC727"></path><path d="M88.69,156l-.56-.12c.06-.27.6-2.6,1.79-3.14s8-1.75,8.29-1.8l.1.57a75.63,75.63,0,0,0-8.15,1.76C89.37,153.62,88.83,155.36,88.69,156Z" style="fill:#FFC727"></path><path d="M93.71,154.23s-3.7-3.87-5.5-2.49,1.44,7.32,3.89,7.83a2.38,2.38,0,0,0,3-1.75Z" style="fill: rgb(235, 148, 129);"></path><path d="M89.18,153.42a0,0,0,0,0,0,.06,6,6,0,0,1,3.64,3.25,1.31,1.31,0,0,0-2-.06,0,0,0,0,0,0,.08,1.48,1.48,0,0,1,1.67.26,6.72,6.72,0,0,1,1,1.17c.1.13.35,0,.27-.14l0,0C93.48,155.93,91.43,153.29,89.18,153.42Z" style="fill:#263238"></path><path d="M60.07,244.48c.13.16,60.87,3.43,61.45,2.83.82-.84-5-61.27-16.26-73.24-2.77-2.95-12.3-6.27-15.32-4.26C82.09,175,77.55,186.4,74.61,193a196.78,196.78,0,0,0-7.38,21.91C63.11,229.11,59.6,243.88,60.07,244.48Z" style="fill:#FFC727"></path><path d="M75.65,190c-2.39,5.49-4.65,11-6.55,16.69s-3.55,11.37-5,17.15c-.81,3.33-1.52,6.66-2.07,10a.08.08,0,0,0,.15,0c1.59-5.74,3.1-11.5,4.78-17.22s3.57-11.43,5.48-17.12c1.06-3.18,2.17-6.36,3.35-9.51C75.86,189.93,75.69,189.86,75.65,190Z" style="fill:#263238"></path><path d="M97,184.35c9.63,12.72,29.72,35.4,41.07,35.52,12,.12,36.36-15,42.9-19.4,2.77-1.89-12.62-21.51-16-20.26s-24.35,14-27,14.45-21.18-13.1-33.21-20.18C90.69,166.16,89.22,174,97,184.35Z" style="fill: rgb(235, 148, 129);"></path><path d="M156.16,185.36c1.31-1.47,7.6-12.19,10.44-14.56s15.33-6.66,18.5-6.94,14.42,2.92,16.46,4.89c1.64,1.59-1.14,5.41-7.55,4.91-6-.46-7.4-.86-9.12-.58s-6.84,4.47-6.37,7c.28,1.49,3.78,4,6.47,3.54s4.31-3.15,7.64-4.72,7.22-.89,7.54.46c.54,2.24-1.26,2.45-4.87,6.31-2.33,2.47-4,7.37-8.85,11.41-2.45,2-10.37,6.58-10.37,6.58Z" style="fill: rgb(235, 148, 129);"></path><path d="M185.09,193.23l20.14,1.14a10.72,10.72,0,0,0,1.23-4c.23-4,.91-16.13.91-16.13l-20.14-1.14s-.7,12.26-.93,16.34A11.35,11.35,0,0,1,185.09,193.23Z" style="fill:#37474f"></path><path d="M189.54,177.9c2.38,0,4.75.12,7.12.3s4.73.42,7.08.8c-2.38,0-4.75-.13-7.12-.3S191.89,178.27,189.54,177.9Z" style="fill:#fff"></path><path d="M189.34,180.55c2.14,0,4.27.09,6.4.24s4.25.39,6.36.75c-2.14,0-4.27-.09-6.4-.25S191.45,180.91,189.34,180.55Z" style="fill:#fff"></path><path d="M189.13,183.2c1.88,0,3.74.05,5.6.18s3.72.35,5.57.69a64.06,64.06,0,0,1-11.17-.87Z" style="fill:#fff"></path><path d="M188.93,185.85c2.38,0,4.75.13,7.11.3s4.73.43,7.08.8c-2.38,0-4.75-.12-7.12-.3S191.28,186.23,188.93,185.85Z" style="fill:#fff"></path><path d="M166.6,170.8c3.28-3.11,11-8.28,17.5-9.08,4.42-.54,16.61,9.67,15.55,12.22s-3.44,2-6.85.68c-1.24-.47-7.4-4.58-8.9-3.45-2.17,1.63-6,8.07-6,8.07Z" style="fill: rgb(235, 148, 129);"></path><path d="M199.56,172.82c-1-3.27-4.4-5.72-7.85-7.85-.05,0-.11.05-.05.08.87.55,6.29,4.88,7.85,7.81C199.53,172.89,199.57,172.85,199.56,172.82Z" style="fill:#263238"></path><path d="M166.6,170.8c3.28-3.11,11-8.28,17.5-9.08,4.42-.54,13.24,10.84,12.18,13.39s-4.52,1.92-8-.33c-1.11-.73-4.48-4.61-6-3.48-2.17,1.62-7.47,5.68-7.47,5.68Z" style="fill: rgb(235, 148, 129);"></path><path d="M191.3,176.28a11.89,11.89,0,0,1-3.94-2.82,9.76,9.76,0,0,0-3.2-2.48,2.73,2.73,0,0,0-1.74-.08,5.18,5.18,0,0,0-1.57,1c-.57.44-1.1.91-1.63,1.38s-.72.66-1.24,1.15c-.22.2-.06.33.19.11a18.5,18.5,0,0,1,2.88-2.08,6.46,6.46,0,0,1,1.63-.89,2.41,2.41,0,0,1,1.81.33c1.14.68,2,1.75,3.09,2.52a10,10,0,0,0,3.69,2C191.34,176.4,191.35,176.3,191.3,176.28Z" style="fill:#263238"></path><path d="M196.35,172.23a13.25,13.25,0,0,0-2.63-4.1,31.32,31.32,0,0,0-3.57-3.53c-.66-.56-1.33-1.1-2-1.63a7.21,7.21,0,0,0-2.1-1.34c-2.18-.66-4.68.53-5.65.84-.06,0,0,.12,0,.1.8-.25,3.38-1.08,4.74-.73a6.15,6.15,0,0,1,2.22,1.27c.58.47,1.16.94,1.73,1.42a25.72,25.72,0,0,1,6.14,6.89c.83,1.49,1.24,3.27.15,4.73,0,0,0,.1.08.07A3.61,3.61,0,0,0,196.35,172.23Z" style="fill:#263238"></path><path d="M164.06,173.59c1.3-1.55,4.56-8.43,6.51-10.3s10.25-8,13.15-6.9c3.65,1.35-1.94,7.13-4.59,9.43s-3.51,7.1-3.51,7.1Z" style="fill: rgb(235, 148, 129);"></path><path d="M183,161.89a33.92,33.92,0,0,0-2.62,2.32,22.67,22.67,0,0,0-2.36,2.34,19.5,19.5,0,0,0-2,4.45c-.44,2.46-1,7.71-2.2,12.64A24,24,0,0,1,171.8,189c-.23.42-.25.8.15.2,3.76-5.61,4.44-16.37,4.83-18.08a15.21,15.21,0,0,1,1.88-4.24c1.36-1.74,3.08-3.17,4.46-4.9C183.18,161.92,183.07,161.84,183,161.89Z" style="fill:#263238"></path><path d="M155.89,184.87l17.4,22.94s-27.16,16.2-39,12.73S101.7,193.58,95,182.6s-1.92-15.7,9.3-9,32.18,19.71,33,20S155.89,184.87,155.89,184.87Z" style="fill:#FFC727"></path><path d="M159.07,199c-1.21-1.7-2.46-3.37-3.71-5-.59-.8-1.19-1.6-1.81-2.38s-1.3-1.76-2-2.55c-.05-.06-.13,0-.09.07.51.94,1.18,1.82,1.75,2.73s1.11,1.66,1.68,2.49c1.18,1.72,2.35,3.44,3.57,5.13,2.43,3.38,5,6.69,7.53,10,.06.07.18,0,.13-.09C163.81,205.84,161.49,202.39,159.07,199Z" style="fill:#263238"></path><path d="M144.64,220a16.86,16.86,0,0,1-9.26.54,21.74,21.74,0,0,1-9-4.65,144.51,144.51,0,0,1-16.74-15.41c-2.93-3.16-5.79-6.42-8.46-9.82a.06.06,0,1,0-.1.07q2.63,3.77,5.52,7.31l-.48-.42c-1-.89-1.94-1.75-2.91-2.63-.14-.13-.3.09-.18.22a38.39,38.39,0,0,0,2.8,2.76c.74.64,1.49,1.33,2.3,1.91a111.62,111.62,0,0,0,8.26,8.74c2.87,2.73,5.85,5.34,9,7.78,2.77,2.17,5.65,4.13,9.15,4.86a17.61,17.61,0,0,0,10.21-1.11C144.78,220.14,144.73,220,144.64,220Z" style="fill:#263238"></path></g></svg>